<svg width="124" height="42" fill="none" xmlns="http://www.w3.org/2000/svg"><path fill-rule="evenodd" clip-rule="evenodd" d="M38.024 32.781l-10.415 4.225 20.677 3.227L24.589 0l13.435 32.781zM22.134 14.14l8.926 6.762L23.563 1.67 0 41.979l22.135-27.84zM14.92 25.995l-1.49 10.987L49 41.924 1.74 42l13.18-16.005z" fill="#000"/><path fill-rule="evenodd" clip-rule="evenodd" d="M38.024 32.781l-10.415 4.225 20.677 3.227L24.589 0l13.435 32.781zM22.134 14.14l8.926 6.762L23.563 1.67 0 41.979l22.135-27.84zM14.92 25.995l-1.49 10.987L49 41.924 1.74 42l13.18-16.005z" fill="url(#paint0_linear_2639_15322)"/><path d="M64.519 27c-1.414 0-2.447-.313-3.1-.94-.64-.64-.96-1.653-.96-3.04V19.2c0-1.36.32-2.36.96-3 .64-.64 1.673-.96 3.1-.96h5.84c1.4 0 2.42.32 3.06.96.653.64.98 1.64.98 3v3.82c0 1.387-.327 2.4-.98 3.04-.654.627-1.674.94-3.06.94h-5.84zm1.38-2.72h3.1c1.04 0 1.56-.473 1.56-1.42v-3.5c0-.933-.52-1.4-1.56-1.4h-3.1c-.534 0-.934.107-1.2.32-.267.213-.4.573-.4 1.08v3.5c0 .493.133.853.4 1.08.266.227.666.34 1.2.34zM77.597 27V16.84l-.2-1.6h3.68l5.64 5.72.78.88h.22v-6.6h3.84V27h-3.34l-5.8-5.78-.78-.94h-.2V27h-3.84zM99 27v-4.86l-5.84-6.9h4.82l1.98 2.74.92 1.46h.2l.92-1.46 1.94-2.74h4.82l-.78 1.2-5.12 5.78V27H99zm9.766 0l.76-1.2 4.24-4.68-5-5.88h5.02l2.46 3.62h.22l2.46-3.62h5.02l-.78 1.18-4.22 4.7 5 5.88h-5.02l-2.46-3.64h-.22l-2.46 3.64h-5.02z" fill="#fff"/><defs><linearGradient id="paint0_linear_2639_15322" x1="24.5" y1="0" x2="24.5" y2="42" gradientUnits="userSpaceOnUse"><stop stop-color="#EEAC25"/><stop offset="1" stop-color="#BC570D"/></linearGradient></defs></svg>